<svg width="37" height="40" viewBox="0 0 37 40" fill="none" xmlns="http://www.w3.org/2000/svg">
<path d="M18.6115 20.7916V26.718H29.612C29.3147 29.6514 27.848 32.1686 25.2515 34.2696C25.1127 34.3886 24.974 34.4876 24.8352 34.5867L29.0174 39.2843C30.0084 38.5509 30.94 37.7184 31.8121 36.7868C33.6158 34.8444 34.9041 32.7434 35.6573 30.5235C36.4303 28.1054 36.8267 25.3305 36.8267 22.1988V20.8114H18.6115V20.7916Z" fill="black"/>
<path d="M5.17319 10.4653C8.32467 7.41292 12.2492 5.90654 16.907 5.90654C22.1 5.90654 26.5002 8.18593 30.1274 12.7447L34.8645 8.44358C32.1095 5.45067 29.2949 3.31005 26.4407 1.98206C23.4478 0.654081 20.2369 0 16.7881 0C10.3662 0 4.93533 2.1208 0.455866 6.3426C0.297301 6.48134 0.158565 6.63992 0 6.79848L4.18216 11.496C4.49929 11.1392 4.83624 10.8022 5.17319 10.4653Z" fill="black"/>
</svg>
